<?xml version="1.0" standalone="no"?>
<!DOCTYPE svg PUBLIC "-//W3C//DTD SVG 20010904//EN"
 "http://www.w3.org/TR/2001/REC-SVG-20010904/DTD/svg10.dtd">
<svg version="1.0" xmlns="http://www.w3.org/2000/svg"
 width="1023.000000pt" height="1023.000000pt" viewBox="0 0 1023.000000 1023.000000"
 preserveAspectRatio="xMidYMid meet">
<metadata>
Created by potrace 1.14, written by Peter Selinger 2001-2017
</metadata>
<g transform="translate(0.000000,1023.000000) scale(0.100000,-0.100000)"
fill="#000000" stroke="none">
<path d="M1316 7633 c-2 -2 -143 -11 -286 -18 -63 -3 -153 -8 -200 -10 -47 -3
-134 -7 -195 -10 -214 -10 -245 -22 -295 -116 -25 -47 -31 -71 -33 -134 -5
-115 10 -201 46 -270 83 -160 120 -243 149 -327 29 -88 31 -102 33 -268 2
-153 9 -285 20 -370 3 -23 9 -74 20 -160 2 -19 8 -60 12 -90 13 -101 9 -265
-11 -410 -3 -19 -8 -57 -12 -85 -3 -27 -8 -59 -10 -70 -2 -11 -6 -56 -10 -100
-3 -44 -10 -98 -14 -120 -5 -22 -12 -71 -15 -110 -15 -165 -37 -228 -135 -393
l-44 -74 0 -138 c-1 -139 -1 -139 30 -182 63 -90 180 -125 539 -161 152 -15
314 -13 650 8 291 19 314 18 410 -15 97 -35 199 -42 276 -18 53 15 106 71 123
127 16 55 11 160 -10 218 -36 100 -207 212 -329 216 -36 1 -208 -16 -300 -29
-39 -5 -421 -5 -460 1 -129 18 -229 56 -294 112 -25 22 -33 37 -34 63 0 36 12
248 18 310 2 19 6 76 10 125 8 94 8 97 21 265 16 199 9 734 -10 850 -3 14 -7
54 -11 90 -4 36 -8 76 -10 90 -2 14 -6 48 -9 75 -3 28 -8 61 -11 75 -2 14 -6
48 -9 75 -10 93 -17 160 -21 190 -5 39 -15 156 -19 226 -3 47 0 61 18 84 21
26 35 30 167 52 95 16 203 25 319 29 l175 5 80 40 c119 59 173 115 196 202 15
54 10 61 -76 102 -81 39 -175 54 -318 52 -71 -1 -129 -3 -131 -4z"/>
<path d="M9370 7480 c-58 -10 -136 -23 -175 -29 -113 -20 -122 -21 -230 -36
-27 -3 -77 -10 -110 -15 -95 -14 -210 -23 -340 -25 -91 -2 -133 -7 -175 -22
-145 -53 -199 -100 -231 -201 -36 -115 -27 -165 45 -236 96 -96 172 -105 348
-38 116 44 146 49 318 57 63 3 142 8 175 10 33 2 119 5 191 6 144 2 158 -2
203 -65 20 -29 20 -38 16 -306 -2 -151 -6 -288 -9 -305 -3 -16 -7 -63 -10
-103 -3 -40 -8 -99 -11 -130 -3 -31 -8 -82 -11 -112 -5 -55 -30 -267 -64 -525
-5 -44 -12 -102 -15 -130 -12 -111 -66 -348 -101 -447 -51 -141 -140 -290
-183 -307 -94 -38 -216 -54 -511 -66 -370 -15 -387 -17 -468 -47 -129 -48
-198 -189 -168 -342 5 -27 21 -52 52 -83 73 -70 93 -77 237 -81 158 -5 241 9
309 50 29 18 63 33 77 34 15 2 44 5 66 8 78 10 172 17 300 20 72 2 141 7 155
10 14 3 39 9 55 11 17 3 37 8 45 10 8 2 53 7 100 10 249 16 269 24 403 162 78
80 109 123 144 200 22 47 24 64 19 113 -7 59 -45 170 -68 198 -9 10 -13 54
-14 136 -2 120 -9 200 -21 218 -7 12 -6 164 1 228 3 25 8 77 11 115 5 65 14
166 20 225 1 14 6 59 9 100 4 41 9 86 11 100 2 14 7 61 10 105 4 44 8 96 10
115 7 68 16 226 20 332 4 99 11 219 20 308 2 19 6 71 9 115 4 44 9 96 11 115
7 62 18 273 18 346 1 112 -41 161 -163 194 -69 19 -214 19 -330 0z"/>
<path d="M2699 6908 c-24 -29 -47 -55 -50 -58 -12 -10 -37 -65 -44 -100 -23
-99 22 -186 143 -280 l44 -33 206 3 c114 1 268 4 342 5 470 11 598 6 601 -22
0 -5 2 -55 4 -113 2 -58 6 -121 9 -140 4 -19 9 -310 12 -645 7 -847 7 -853 0
-941 -11 -128 -35 -149 -172 -147 l-91 2 -299 152 c-182 93 -326 173 -369 206
-93 71 -144 94 -219 100 -125 11 -256 -67 -271 -160 -14 -87 -15 -233 -1 -280
32 -109 109 -162 221 -153 110 10 392 -67 570 -154 142 -70 242 -110 345 -138
109 -31 124 -33 250 -37 l115 -4 100 50 c125 63 162 85 199 118 32 29 76 115
71 140 -1 9 -6 41 -10 71 -3 30 -8 66 -11 80 -5 33 -15 151 -29 345 -7 87 -13
155 -25 270 -6 50 -12 178 -16 285 -3 107 -7 233 -9 280 -5 114 -6 695 -1 743
2 20 10 44 17 53 18 22 65 45 81 39 7 -2 27 -6 43 -9 17 -2 51 -9 76 -15 25
-6 63 -13 85 -16 21 -2 48 -7 60 -9 12 -2 45 -7 75 -11 30 -4 101 -13 158 -20
57 -7 109 -12 115 -10 6 3 22 6 36 9 167 28 254 104 251 218 -1 79 -44 147
-123 196 -38 24 -76 28 -383 37 -194 7 -272 10 -430 20 -49 3 -299 7 -555 10
-256 3 -483 7 -505 9 -22 3 -89 18 -150 35 -159 45 -275 68 -354 70 l-68 2
-44 -53z"/>
<path d="M7320 6881 c-76 -41 -131 -127 -158 -246 -3 -11 -6 -112 -7 -225 -2
-189 -13 -418 -20 -430 -2 -3 -6 -32 -9 -65 -4 -33 -9 -69 -11 -80 -2 -11 -7
-36 -9 -55 -3 -19 -10 -60 -16 -90 -12 -56 -15 -76 -24 -120 -30 -155 -43
-189 -90 -225 -51 -39 -85 -47 -216 -50 -69 -2 -156 -8 -195 -13 -38 -6 -106
-11 -150 -10 -44 0 -96 -2 -115 -5 -81 -13 -206 -27 -223 -24 -34 6 -40 25
-42 124 -1 83 13 228 40 418 16 120 20 193 20 425 0 361 -8 417 -64 468 -45
40 -99 56 -174 49 -70 -6 -123 -38 -165 -99 -60 -88 -64 -141 -19 -263 25 -69
25 -74 22 -300 -3 -127 -6 -243 -9 -260 -3 -16 -8 -64 -11 -105 -7 -96 -16
-174 -20 -180 -2 -3 -6 -41 -10 -85 -8 -106 -30 -216 -49 -254 -9 -17 -39 -52
-67 -78 -28 -26 -62 -66 -75 -90 -22 -37 -25 -51 -21 -110 5 -72 19 -111 65
-190 34 -57 33 -54 21 -95 -16 -58 -24 -149 -24 -298 0 -132 2 -149 23 -187
51 -97 131 -153 216 -153 38 0 51 6 95 46 57 52 105 140 121 224 10 49 13 213
5 295 -5 55 44 137 92 155 30 12 281 78 323 85 19 3 67 12 105 20 39 8 93 17
121 20 28 3 61 8 75 10 31 6 219 8 225 2 5 -5 8 -20 18 -88 7 -44 14 -154 21
-324 16 -363 76 -592 203 -774 43 -62 46 -63 82 -58 63 8 94 28 107 70 36 109
38 310 6 552 -12 95 3 688 22 815 2 14 7 54 10 90 4 36 11 84 16 108 5 23 12
59 15 78 8 51 9 56 42 184 17 63 33 135 37 160 3 25 8 52 10 60 2 8 7 35 10
60 3 25 8 56 10 70 2 14 7 43 9 65 8 60 36 275 42 315 9 71 25 157 39 215 8
33 16 109 18 168 2 87 0 116 -15 148 -48 108 -193 176 -278 130z"/>
</g>
</svg>
